# xmcd CD database file
# Copyright (C) 1996 Ti Kan
#
# Track frame offsets:
#  150
#  13058
#  28138
#  42500
#  57375
#  70488
#  85018
#  98818
#  112475
#  125505
#  138633
#  150618
#  164548
#  178360
#
# Disc length: 2561 seconds
#
# Revision: 1
# Processed by: cddbd v1.4b41PL1 Copyright (c) Steve Scherf et al.
# Submitted via: CDWizzard Release:4.12
#
DISCID=d309ff0e
DTITLE=Ma Rainey - Ma Rainey's Black Bottom
DYEAR=1900
DGENRE=
TTITLE0=Oh Papa Blues
TTITLE1=Black Eye Blues (Take 1)
TTITLE2=Ma Rainey's Black Bottom
TTITLE3=Booze And Blues
TTITLE4=Blues Oh Blues
TTITLE5=Sleep Talking Blues (Take 1)
TTITLE6=Lucky Rock Blues
TTITLE7=Georgia Cake Walk
TTITLE8=Don't Fish In My Sea
TTITLE9=Stack O' Lee Blues
TTITLE10=Shave 'Em Dry Blues
TTITLE11=Yonder Come The Blues (Take 1)
TTITLE12=Screech Owl Blues
TTITLE13=Farewell Daddy Blues
EXTD=
EXTT0=
EXTT1=
EXTT2=
EXTT3=
EXTT4=
EXTT5=
EXTT6=
EXTT7=
EXTT8=
EXTT9=
EXTT10=
EXTT11=
EXTT12=
EXTT13=
PLAYORDER=
